<svg width="1920" height="1080" viewBox="0 0 1920 1080" fill="none" xmlns="http://www.w3.org/2000/svg">
<g clip-path="url(#clip0_93_526)">
<rect width="1920" height="1080" fill="white"/>
<g opacity="0.18" filter="url(#filter0_f_93_526)">
<path fill-rule="evenodd" clip-rule="evenodd" d="M372.72 578.002C383.042 667.118 335.636 752.655 273.067 816.947C209.597 882.165 124.724 934.477 34.1217 925.925C-51.5402 917.839 -111.953 844.542 -163.604 775.727C-206.799 718.18 -230.883 649.853 -227.025 578.002C-223.379 510.092 -188.784 451.123 -143.454 400.426C-94.653 345.848 -39.0549 288.284 34.1217 285.938C108.727 283.547 166.936 339.911 223.458 388.666C286.72 443.233 363.106 495.011 372.72 578.002Z" fill="#5275FA"/>
</g>
<g opacity="0.2" filter="url(#filter1_f_93_526)">
<path fill-rule="evenodd" clip-rule="evenodd" d="M1657 617.073C1746.12 606.75 1831.66 654.156 1895.95 716.725C1961.17 780.195 2013.48 865.068 2004.93 955.67C1996.84 1041.33 1923.54 1101.74 1854.73 1153.4C1797.18 1196.59 1728.85 1220.68 1657 1216.82C1589.09 1213.17 1530.12 1178.58 1479.43 1133.25C1424.85 1084.45 1367.28 1028.85 1364.94 955.67C1362.55 881.065 1418.91 822.857 1467.67 766.334C1522.23 703.072 1574.01 626.686 1657 617.073Z" fill="#14AEA1"/>
</g>
<g opacity="0.18" filter="url(#filter2_f_93_526)">
<path fill-rule="evenodd" clip-rule="evenodd" d="M1460.24 -134.201C1516.3 -128.589 1567.2 -106.583 1609.21 -69.0031C1654.25 -28.7081 1689.8 20.4608 1699.77 80.0938C1711.84 152.302 1723.83 240.551 1669.1 289.129C1614.94 337.198 1532.55 289.462 1460.24 292.703C1380.96 296.256 1287.29 365.495 1231.79 308.729C1176.2 251.872 1243.45 159.139 1252.37 80.0938C1259.52 16.7175 1233.76 -56.382 1278.15 -102.144C1322.77 -148.149 1396.49 -140.583 1460.24 -134.201Z" fill="#F24079"/>
</g>
</g>
<defs>
<filter id="filter0_f_93_526" x="-447.427" y="65.8646" width="1041.56" height="1080.98" filterUnits="userSpaceOnUse" color-interpolation-filters="sRGB">
<feFlood flood-opacity="0" result="BackgroundImageFix"/>
<feBlend mode="normal" in="SourceGraphic" in2="BackgroundImageFix" result="shape"/>
<feGaussianBlur stdDeviation="110" result="effect1_foregroundBlur_93_526"/>
</filter>
<filter id="filter1_f_93_526" x="1144.86" y="395.656" width="1080.98" height="1041.56" filterUnits="userSpaceOnUse" color-interpolation-filters="sRGB">
<feFlood flood-opacity="0" result="BackgroundImageFix"/>
<feBlend mode="normal" in="SourceGraphic" in2="BackgroundImageFix" result="shape"/>
<feGaussianBlur stdDeviation="110" result="effect1_foregroundBlur_93_526"/>
</filter>
<filter id="filter2_f_93_526" x="910" y="-439" width="1100" height="1070" filterUnits="userSpaceOnUse" color-interpolation-filters="sRGB">
<feFlood flood-opacity="0" result="BackgroundImageFix"/>
<feBlend mode="normal" in="SourceGraphic" in2="BackgroundImageFix" result="shape"/>
<feGaussianBlur stdDeviation="150" result="effect1_foregroundBlur_93_526"/>
</filter>
<clipPath id="clip0_93_526">
<rect width="1920" height="1080" fill="white"/>
</clipPath>
</defs>
</svg>
