<svg width="42" height="48" viewBox="0 0 42 48" fill="none" xmlns="http://www.w3.org/2000/svg">
<path d="M17.9254 0.797649C19.6942 -0.257802 21.91 -0.266214 23.6877 0.774751L39.2589 9.892C40.9567 10.8862 41.9971 12.6886 41.9972 14.6346V34.3911C41.9972 36.4285 40.858 38.3012 39.0333 39.2601L23.6344 47.3511C21.9874 48.2164 20.0099 48.2164 18.3629 47.3511L2.96387 39.2601C1.1393 38.3012 0 36.4285 0 34.3911V14.6049C0 12.6753 1.02351 10.885 2.69864 9.88527L17.9254 0.797649ZM22.9809 3.61539C21.6476 2.83486 19.9861 2.84132 18.6595 3.6329L4.12453 12.307C3.01687 12.9683 3.05348 14.5645 4.19015 15.1759L18.9876 23.1308C20.2413 23.8046 21.7574 23.8047 23.011 23.1308L24.6228 22.2634C26.5246 21.7044 27.8237 22.8501 27.9818 24.1087L27.9981 24.3673V34.3399C27.9986 35.8227 29.5362 36.824 30.921 36.243L33.7208 34.9032C34.4948 34.5784 34.9973 33.8289 34.9977 33V18.3238C34.9977 17.3144 35.5571 16.3854 36.4564 15.9019L37.7825 15.1894C38.9244 14.575 38.9541 12.969 37.8357 12.3138L22.9809 3.61539Z" fill="url(#paint0_linear_44_2387)"/>
<defs>
<linearGradient id="paint0_linear_44_2387" x1="11.6653" y1="4.82766" x2="32.9973" y2="42.5734" gradientUnits="userSpaceOnUse">
<stop stop-color="#F5709A"/>
<stop offset="1" stop-color="#F24079"/>
</linearGradient>
</defs>
</svg>
