<svg width="160" height="32" viewBox="0 0 160 32" fill="none" xmlns="http://www.w3.org/2000/svg">
<path d="M11.9502 0.531439C13.1294 -0.172165 14.6068 -0.177176 15.792 0.516791L26.1729 6.59492C27.3044 7.25774 27.9979 8.45902 27.998 9.75605V15.135C26.1752 15.4601 24.5541 16.3646 23.332 17.6535V12.216C23.332 11.5432 23.7052 10.9231 24.3047 10.6008L25.1885 10.1262C25.9496 9.71651 25.9691 8.64605 25.2236 8.20917L15.3203 2.41035C14.4315 1.89007 13.3238 1.89436 12.4395 2.42206L2.75 8.20429C2.01174 8.64511 2.03549 9.70967 2.79297 10.1174L12.6582 15.4201C13.4939 15.8692 14.5051 15.8693 15.3408 15.4201L16.415 14.842C17.6829 14.4693 18.5489 15.2334 18.6543 16.0725L18.665 16.2443V22.8928C18.6655 23.8812 19.6911 24.5496 20.6143 24.1623L21.0146 23.9934C21.101 25.5016 21.5826 26.9032 22.3545 28.0998L15.7559 31.5676C14.6581 32.1441 13.3399 32.1442 12.2422 31.5676L1.97559 26.173C0.759471 25.5338 7.48228e-05 24.285 0 22.9269V9.73652C0 8.45018 0.682227 7.25657 1.79883 6.59003L11.9502 0.531439Z" fill="url(#paint0_linear_69_8)"/>
<path fill-rule="evenodd" clip-rule="evenodd" d="M29.5 16.9992C30.3886 16.9992 31.2278 17.1713 32.0166 17.5158C32.8052 17.8602 33.494 18.3272 34.083 18.9162C34.6721 19.5053 35.1389 20.1948 35.4834 20.9836C35.8278 21.7722 36 22.6108 36 23.4992C36 24.3878 35.8279 25.227 35.4834 26.0158C35.139 26.8045 34.672 27.4932 34.083 28.0822C33.494 28.6712 32.8052 29.1382 32.0166 29.4826C31.2278 29.8271 30.3886 29.9992 29.5 29.9992C28.6114 29.9992 27.7722 29.8271 26.9834 29.4826C26.1948 29.1382 25.506 28.6712 24.917 28.0822C24.328 27.4932 23.861 26.8045 23.5166 26.0158C23.1721 25.227 23 24.3878 23 23.4992C23 22.6108 23.1722 21.7722 23.5166 20.9836C23.8611 20.1948 24.3279 19.5053 24.917 18.9162C25.506 18.3272 26.1948 17.8602 26.9834 17.5158C27.7722 17.1713 28.6114 16.9992 29.5 16.9992ZM28.4365 25.8059C28.5563 26.2252 28.7042 26.6275 28.8789 27.0119C29.0536 27.3962 29.2501 27.7585 29.4697 28.0978C29.6893 27.7585 29.8943 27.3962 30.084 27.0119C30.2737 26.6275 30.429 26.2252 30.5488 25.8059H28.4365ZM25.5312 25.8059C25.7908 26.2851 26.1305 26.7042 26.5498 27.0637C26.9691 27.4231 27.4482 27.6879 27.9873 27.8576C27.7877 27.5481 27.6304 27.2159 27.5156 26.8615C27.4008 26.5072 27.2988 26.1552 27.209 25.8059H25.5312ZM31.7764 25.8059C31.6865 26.1553 31.5789 26.5071 31.4541 26.8615C31.3293 27.2159 31.1674 27.5481 30.9678 27.8576C31.5069 27.6879 31.9916 27.4231 32.4209 27.0637C32.85 26.7043 33.1946 26.285 33.4541 25.8059H31.7764ZM25.0371 22.3459C24.9872 22.5356 24.9498 22.7237 24.9248 22.9084C24.8999 23.0929 24.8867 23.2898 24.8867 23.4992C24.8867 23.6988 24.8999 23.8936 24.9248 24.0832C24.9498 24.2729 24.9872 24.4629 25.0371 24.6525H26.9688C26.9388 24.453 26.9163 24.2609 26.9014 24.0764C26.8864 23.8916 26.8789 23.6989 26.8789 23.4992C26.8789 23.2896 26.8864 23.0949 26.9014 22.9152C26.9163 22.7356 26.9388 22.5455 26.9688 22.3459H25.0371ZM28.167 22.3459C28.137 22.5455 28.1146 22.7356 28.0996 22.9152C28.0846 23.0949 28.0772 23.2896 28.0771 23.4992C28.0771 23.6989 28.0846 23.8916 28.0996 24.0764C28.1146 24.2609 28.1371 24.453 28.167 24.6525H30.8184C30.8483 24.453 30.8651 24.2609 30.8701 24.0764C30.8751 23.8916 30.8779 23.6989 30.8779 23.4992C30.8779 23.2896 30.8751 23.0949 30.8701 22.9152C30.8651 22.7356 30.8483 22.5455 30.8184 22.3459H28.167ZM32.0615 22.9152C32.0715 23.0949 32.0762 23.2896 32.0762 23.4992C32.0762 23.6989 32.0715 23.8916 32.0615 24.0764C32.0515 24.2609 32.0366 24.453 32.0166 24.6525H33.9336C33.9835 24.4629 34.0209 24.2728 34.0459 24.0832C34.0708 23.8936 34.083 23.6987 34.083 23.4992C34.083 23.2898 34.0708 23.0929 34.0459 22.9084C34.0209 22.7237 33.9835 22.5356 33.9336 22.3459H32.0166C32.0366 22.5455 32.0515 22.7355 32.0615 22.9152ZM27.9873 19.1408C27.4481 19.3106 26.9692 19.5735 26.5498 19.9279C26.1305 20.2823 25.7908 20.6988 25.5312 21.1779H27.209C27.2988 20.8287 27.4009 20.4793 27.5156 20.1301C27.6304 19.7806 27.7876 19.4503 27.9873 19.1408ZM29.4697 18.9016C29.2502 19.2409 29.0536 19.6004 28.8789 19.9797C28.7042 20.3591 28.5563 20.7586 28.4365 21.1779H30.5488C30.439 20.7586 30.2883 20.3591 30.0986 19.9797C29.909 19.6004 29.6993 19.2409 29.4697 18.9016ZM30.9678 19.1408C31.1675 19.4503 31.3293 19.7806 31.4541 20.1301C31.5789 20.4794 31.6865 20.8286 31.7764 21.1779H33.4541C33.1946 20.6988 32.85 20.2823 32.4209 19.9279C31.9916 19.5735 31.5069 19.3106 30.9678 19.1408Z" fill="url(#paint1_linear_69_8)"/>
<path d="M50.58 24.28H47.26V11.04H42V8.08H55.84V11.04H50.58V24.28Z" fill="#4F5159"/>
<path d="M56.8644 24.28V15.56H55.2244V12.28H58.5844V14.64H59.4244C59.7444 13.8 60.251 13.1733 60.9444 12.76C61.6377 12.3467 62.4177 12.14 63.2844 12.14H64.3044V15.02H63.1444C62.1044 15.02 61.3377 15.3133 60.8444 15.9C60.3644 16.4867 60.1244 17.26 60.1244 18.22V24.28H56.8644Z" fill="#4F5159"/>
<path d="M69.595 24.5C68.1817 24.5 67.075 24.16 66.275 23.48C65.475 22.7867 65.075 21.88 65.075 20.76C65.075 19.5733 65.4883 18.66 66.315 18.02C67.1417 17.38 68.3283 17.06 69.875 17.06H73.315V16.6C73.315 15.3067 72.5417 14.66 70.995 14.66C69.6483 14.66 68.835 15.1267 68.555 16.06H65.255C65.5217 14.74 66.1417 13.74 67.115 13.06C68.0883 12.38 69.3817 12.04 70.995 12.04C72.7817 12.04 74.1417 12.44 75.075 13.24C76.0217 14.04 76.495 15.2067 76.495 16.74V21H78.055V24.28H74.695V22.32H73.855C73.4417 23.0133 72.8883 23.5533 72.195 23.94C71.5017 24.3133 70.635 24.5 69.595 24.5ZM70.095 21.98C70.7217 21.98 71.275 21.8667 71.755 21.64C72.235 21.4133 72.615 21.1133 72.895 20.74C73.175 20.3533 73.315 19.92 73.315 19.44V19.26H70.035C68.835 19.26 68.235 19.7067 68.235 20.6C68.235 21.04 68.4017 21.38 68.735 21.62C69.0683 21.86 69.5217 21.98 70.095 21.98Z" fill="#4F5159"/>
<path d="M80.3797 24.28V15.56H78.7397V12.28H82.0997V14.24H82.9397C83.4064 13.5467 83.993 13.0133 84.6997 12.64C85.4064 12.2533 86.2864 12.06 87.3397 12.06C89.0064 12.06 90.293 12.52 91.1997 13.44C92.1197 14.3467 92.5797 15.5667 92.5797 17.1V24.28H89.2597V17.72C89.2597 16.84 89.0197 16.1733 88.5397 15.72C88.073 15.2533 87.3864 15.02 86.4797 15.02C85.573 15.02 84.8797 15.2533 84.3997 15.72C83.933 16.1733 83.6997 16.84 83.6997 17.72V24.28H80.3797Z" fill="#4F5159"/>
<path d="M100.389 24.52C98.6291 24.52 97.2357 24.1533 96.2091 23.42C95.1957 22.6733 94.6491 21.6333 94.5691 20.3H97.7691C97.8757 20.8733 98.1491 21.3 98.5891 21.58C99.0424 21.86 99.6891 22 100.529 22C101.902 22 102.589 21.62 102.589 20.86C102.589 20.5533 102.482 20.3133 102.269 20.14C102.069 19.9533 101.729 19.8133 101.249 19.72L98.5691 19.2C96.1691 18.7333 94.9691 17.6067 94.9691 15.82C94.9691 14.6733 95.4291 13.76 96.3491 13.08C97.2691 12.3867 98.5424 12.04 100.169 12.04C101.782 12.04 103.062 12.3933 104.009 13.1C104.956 13.8067 105.476 14.7933 105.569 16.06H102.369C102.222 15.5 101.962 15.0933 101.589 14.84C101.216 14.5867 100.676 14.46 99.9691 14.46C99.3557 14.46 98.8891 14.5533 98.5691 14.74C98.2491 14.9133 98.0891 15.18 98.0891 15.54C98.0891 15.7933 98.1891 16.0067 98.3891 16.18C98.5891 16.3533 98.8957 16.48 99.3091 16.56L102.049 17.08C103.302 17.3333 104.222 17.74 104.809 18.3C105.396 18.86 105.689 19.62 105.689 20.58C105.689 21.82 105.229 22.7867 104.309 23.48C103.402 24.1733 102.096 24.52 100.389 24.52Z" fill="#4F5159"/>
<path d="M107.634 24.28V7.48H110.954V24.28H107.634Z" fill="#4F5159"/>
<path d="M117.525 24.5C116.111 24.5 115.005 24.16 114.205 23.48C113.405 22.7867 113.005 21.88 113.005 20.76C113.005 19.5733 113.418 18.66 114.245 18.02C115.071 17.38 116.258 17.06 117.805 17.06H121.245V16.6C121.245 15.3067 120.471 14.66 118.925 14.66C117.578 14.66 116.765 15.1267 116.485 16.06H113.185C113.451 14.74 114.071 13.74 115.045 13.06C116.018 12.38 117.311 12.04 118.925 12.04C120.711 12.04 122.071 12.44 123.005 13.24C123.951 14.04 124.425 15.2067 124.425 16.74V21H125.985V24.28H122.625V22.32H121.785C121.371 23.0133 120.818 23.5533 120.125 23.94C119.431 24.3133 118.565 24.5 117.525 24.5ZM118.025 21.98C118.651 21.98 119.205 21.8667 119.685 21.64C120.165 21.4133 120.545 21.1133 120.825 20.74C121.105 20.3533 121.245 19.92 121.245 19.44V19.26H117.965C116.765 19.26 116.165 19.7067 116.165 20.6C116.165 21.04 116.331 21.38 116.665 21.62C116.998 21.86 117.451 21.98 118.025 21.98Z" fill="#4F5159"/>
<path d="M131.648 24.28C130.794 24.28 130.128 24.0667 129.648 23.64C129.181 23.2 128.948 22.5333 128.948 21.64V14.88H126.888V12.28H128.988V8.67999H132.228V12.28H135.008V14.88H132.268V21.68H135.288V24.28H131.648Z" fill="#4F5159"/>
<path d="M142.882 24.52C141.576 24.52 140.436 24.2667 139.462 23.76C138.502 23.24 137.756 22.5133 137.222 21.58C136.689 20.6467 136.422 19.54 136.422 18.26C136.422 16.9933 136.682 15.8933 137.202 14.96C137.736 14.0267 138.489 13.3067 139.462 12.8C140.436 12.2933 141.582 12.04 142.902 12.04C144.209 12.04 145.342 12.2933 146.302 12.8C147.262 13.3067 148.002 14.0267 148.522 14.96C149.042 15.8933 149.302 17 149.302 18.28C149.302 19.5467 149.042 20.6533 148.522 21.6C148.002 22.5333 147.256 23.2533 146.282 23.76C145.322 24.2667 144.189 24.52 142.882 24.52ZM142.882 21.64C143.882 21.64 144.649 21.34 145.182 20.74C145.716 20.1267 145.982 19.3 145.982 18.26C145.982 17.22 145.716 16.4067 145.182 15.82C144.649 15.22 143.882 14.92 142.882 14.92C141.869 14.92 141.089 15.22 140.542 15.82C140.009 16.4067 139.742 17.22 139.742 18.26C139.742 19.3 140.009 20.1267 140.542 20.74C141.089 21.34 141.869 21.64 142.882 21.64Z" fill="#4F5159"/>
<path d="M152.325 24.28V15.56H150.685V12.28H154.045V14.64H154.885C155.205 13.8 155.712 13.1733 156.405 12.76C157.099 12.3467 157.879 12.14 158.745 12.14H159.765V15.02H158.605C157.565 15.02 156.799 15.3133 156.305 15.9C155.825 16.4867 155.585 17.26 155.585 18.22V24.28H152.325Z" fill="#4F5159"/>
<defs>
<linearGradient id="paint0_linear_69_8" x1="7" y1="3.49901" x2="23" y2="27.499" gradientUnits="userSpaceOnUse">
<stop stop-color="#7E98FB"/>
<stop offset="1" stop-color="#5275FA"/>
</linearGradient>
<linearGradient id="paint1_linear_69_8" x1="7" y1="3.49901" x2="23" y2="27.499" gradientUnits="userSpaceOnUse">
<stop stop-color="#7E98FB"/>
<stop offset="1" stop-color="#5275FA"/>
</linearGradient>
</defs>
</svg>
