<svg width="158" height="33" viewBox="0 0 158 33" fill="none" xmlns="http://www.w3.org/2000/svg">
<path d="M34.9092 19.8536C35.2689 20.3995 35.541 20.9709 35.7246 21.5684C35.9082 22.1663 36 22.7833 36 23.4181C35.9999 25.2056 35.3767 26.7407 34.1299 28.0225C32.883 29.3047 31.3762 29.9454 29.6104 29.9454H29.4629L30.5469 31.0186L29.332 32.2325L26.0107 28.9112L29.332 25.5782L30.5469 26.7931L29.4629 27.8761H29.5771C30.7827 27.8761 31.8099 27.4418 32.6582 26.5724C33.5065 25.7028 33.9306 24.6512 33.9307 23.4181C33.9307 23.0576 33.886 22.7051 33.7969 22.3614C33.7078 22.0178 33.5746 21.6825 33.3965 21.3556L34.9092 19.8536Z" fill="url(#paint0_linear_69_9)"/>
<path d="M11.9502 0.531337C13.1293 -0.17213 14.6069 -0.177143 15.792 0.516688L26.1729 6.59481C27.3043 7.25756 27.9977 8.45903 27.998 9.75595V15.1349C26.1753 15.46 24.5541 16.3647 23.332 17.6534V12.2159C23.3322 11.5432 23.7053 10.9229 24.3047 10.6007L25.1885 10.1261C25.9495 9.71632 25.9691 8.64588 25.2236 8.20907L15.3203 2.41024C14.4316 1.8901 13.3237 1.8944 12.4395 2.42196L2.75 8.20419C2.0117 8.64494 2.03562 9.70949 2.79297 10.1173L12.6582 15.42C13.4939 15.8692 14.5051 15.8693 15.3408 15.42L16.415 14.8419C17.6826 14.4693 18.5487 15.2335 18.6543 16.0724L18.665 16.2442V22.8927C18.6653 23.8812 19.6911 24.5496 20.6143 24.1622L21.0146 23.9933C21.101 25.5015 21.5826 26.9031 22.3545 28.0997L15.7559 31.5675C14.6581 32.1441 13.34 32.1441 12.2422 31.5675L1.97559 26.1729C0.759507 25.5336 0 24.2849 0 22.9268V9.73641C0.000140244 8.4502 0.682289 7.25639 1.79883 6.58993L11.9502 0.531337Z" fill="url(#paint1_linear_69_9)"/>
<path d="M32.9893 17.9688L29.668 21.2911L28.4531 20.087L29.5371 19.004H29.4229C28.2172 19.004 27.1901 19.4369 26.3418 20.3028C25.4935 21.1687 25.0694 22.2181 25.0693 23.4513C25.0693 23.8117 25.114 24.1642 25.2031 24.5079C25.2923 24.8515 25.4254 25.1868 25.6035 25.5138L24.0908 27.0274C23.731 26.4815 23.459 25.9072 23.2754 25.3058C23.0918 24.7043 23 24.086 23 23.4513C23.0001 21.6637 23.6234 20.1309 24.8701 18.8526C26.117 17.5742 27.6238 16.9347 29.3896 16.9347H29.5371L28.4531 15.8507L29.668 14.6475L32.9893 17.9688Z" fill="url(#paint2_linear_69_9)"/>
<path d="M50.22 24.4862C48.5667 24.4862 47.12 24.1462 45.88 23.4662C44.6533 22.7729 43.7 21.7996 43.02 20.5462C42.34 19.2796 42 17.8062 42 16.1262C42 14.4196 42.34 12.9396 43.02 11.6862C43.7 10.4329 44.6533 9.46625 45.88 8.78625C47.12 8.09291 48.5667 7.74625 50.22 7.74625C51.5533 7.74625 52.7333 7.97958 53.76 8.44625C54.8 8.89958 55.6467 9.55291 56.3 10.4062C56.9667 11.2596 57.3867 12.2796 57.56 13.4662H54.04C53.8933 12.5996 53.48 11.9329 52.8 11.4662C52.12 10.9862 51.26 10.7462 50.22 10.7462C48.7267 10.7462 47.5467 11.2196 46.68 12.1662C45.8133 13.1129 45.38 14.4329 45.38 16.1262C45.38 17.8062 45.8133 19.1262 46.68 20.0862C47.5467 21.0329 48.7267 21.5062 50.22 21.5062C51.26 21.5062 52.12 21.2662 52.8 20.7862C53.48 20.3062 53.8933 19.6329 54.04 18.7662H57.56C57.3867 19.9529 56.9667 20.9796 56.3 21.8462C55.6467 22.6996 54.8 23.3529 53.76 23.8062C52.7333 24.2596 51.5533 24.4862 50.22 24.4862Z" fill="#4F5159"/>
<path d="M64.9578 24.4262C63.6511 24.4262 62.5111 24.1729 61.5378 23.6662C60.5778 23.1462 59.8311 22.4196 59.2978 21.4862C58.7645 20.5529 58.4978 19.4462 58.4978 18.1662C58.4978 16.8996 58.7578 15.7996 59.2778 14.8662C59.8111 13.9329 60.5645 13.2129 61.5378 12.7062C62.5111 12.1996 63.6578 11.9462 64.9778 11.9462C66.2845 11.9462 67.4178 12.1996 68.3778 12.7062C69.3378 13.2129 70.0778 13.9329 70.5978 14.8662C71.1178 15.7996 71.3778 16.9062 71.3778 18.1862C71.3778 19.4529 71.1178 20.5596 70.5978 21.5062C70.0778 22.4396 69.3311 23.1596 68.3578 23.6662C67.3978 24.1729 66.2645 24.4262 64.9578 24.4262ZM64.9578 21.5462C65.9578 21.5462 66.7245 21.2462 67.2578 20.6462C67.7911 20.0329 68.0578 19.2062 68.0578 18.1662C68.0578 17.1262 67.7911 16.3129 67.2578 15.7262C66.7245 15.1262 65.9578 14.8262 64.9578 14.8262C63.9445 14.8262 63.1645 15.1262 62.6178 15.7262C62.0845 16.3129 61.8178 17.1262 61.8178 18.1662C61.8178 19.2062 62.0845 20.0329 62.6178 20.6462C63.1645 21.2462 63.9445 21.5462 64.9578 21.5462Z" fill="#4F5159"/>
<path d="M74.2209 24.1862V15.4662H72.5809V12.1862H75.9409V14.1462H76.7809C77.2476 13.4529 77.8343 12.9196 78.5409 12.5462C79.2476 12.1596 80.1276 11.9662 81.1809 11.9662C82.8476 11.9662 84.1343 12.4262 85.0409 13.3462C85.9609 14.2529 86.4209 15.4729 86.4209 17.0062V24.1862H83.1009V17.6262C83.1009 16.7462 82.8609 16.0796 82.3809 15.6262C81.9143 15.1596 81.2276 14.9262 80.3209 14.9262C79.4143 14.9262 78.7209 15.1596 78.2409 15.6262C77.7743 16.0796 77.5409 16.7462 77.5409 17.6262V24.1862H74.2209Z" fill="#4F5159"/>
<path d="M92.5119 24.1862L87.3719 12.1862H90.8719L94.2319 20.3462H94.3119L97.5719 12.1862H101.012L95.8719 24.1862H92.5119Z" fill="#4F5159"/>
<path d="M107.768 24.4262C106.475 24.4262 105.348 24.1729 104.388 23.6662C103.428 23.1462 102.688 22.4196 102.168 21.4862C101.648 20.5396 101.388 19.4262 101.388 18.1462C101.388 16.8662 101.642 15.7662 102.148 14.8462C102.655 13.9129 103.375 13.1996 104.308 12.7062C105.255 12.1996 106.368 11.9462 107.648 11.9462C108.902 11.9462 109.975 12.1862 110.868 12.6662C111.775 13.1462 112.468 13.8329 112.948 14.7262C113.428 15.6196 113.668 16.6862 113.668 17.9262V19.0462H104.568C104.702 19.9396 105.042 20.6196 105.588 21.0862C106.135 21.5529 106.855 21.7862 107.748 21.7862C108.455 21.7862 109.015 21.6662 109.428 21.4262C109.842 21.1862 110.135 20.8196 110.308 20.3262H113.628C113.362 21.6062 112.715 22.6129 111.688 23.3462C110.662 24.0662 109.355 24.4262 107.768 24.4262ZM104.648 16.8462H110.488C110.382 16.0862 110.088 15.5196 109.608 15.1462C109.128 14.7596 108.482 14.5662 107.668 14.5662C106.855 14.5662 106.188 14.7596 105.668 15.1462C105.162 15.5329 104.822 16.0996 104.648 16.8462Z" fill="#4F5159"/>
<path d="M116.682 24.1862V15.4662H115.042V12.1862H118.402V14.5462H119.242C119.562 13.7062 120.069 13.0796 120.762 12.6662C121.456 12.2529 122.236 12.0462 123.102 12.0462H124.122V14.9262H122.962C121.922 14.9262 121.156 15.2196 120.662 15.8062C120.182 16.3929 119.942 17.1662 119.942 18.1262V24.1862H116.682Z" fill="#4F5159"/>
<path d="M129.731 24.1862C128.878 24.1862 128.211 23.9729 127.731 23.5462C127.265 23.1062 127.031 22.4396 127.031 21.5462V14.7862H124.971V12.1862H127.071V8.58625H130.311V12.1862H133.091V14.7862H130.351V21.5862H133.371V24.1862H129.731Z" fill="#4F5159"/>
<path d="M140.886 24.4262C139.592 24.4262 138.466 24.1729 137.506 23.6662C136.546 23.1462 135.806 22.4196 135.286 21.4862C134.766 20.5396 134.506 19.4262 134.506 18.1462C134.506 16.8662 134.759 15.7662 135.266 14.8462C135.772 13.9129 136.492 13.1996 137.426 12.7062C138.372 12.1996 139.486 11.9462 140.766 11.9462C142.019 11.9462 143.092 12.1862 143.986 12.6662C144.892 13.1462 145.586 13.8329 146.066 14.7262C146.546 15.6196 146.786 16.6862 146.786 17.9262V19.0462H137.686C137.819 19.9396 138.159 20.6196 138.706 21.0862C139.252 21.5529 139.972 21.7862 140.866 21.7862C141.572 21.7862 142.132 21.6662 142.546 21.4262C142.959 21.1862 143.252 20.8196 143.426 20.3262H146.746C146.479 21.6062 145.832 22.6129 144.806 23.3462C143.779 24.0662 142.472 24.4262 140.886 24.4262ZM137.766 16.8462H143.606C143.499 16.0862 143.206 15.5196 142.726 15.1462C142.246 14.7596 141.599 14.5662 140.786 14.5662C139.972 14.5662 139.306 14.7596 138.786 15.1462C138.279 15.5329 137.939 16.0996 137.766 16.8462Z" fill="#4F5159"/>
<path d="M149.799 24.1862V15.4662H148.159V12.1862H151.519V14.5462H152.359C152.679 13.7062 153.186 13.0796 153.879 12.6662C154.573 12.2529 155.353 12.0462 156.219 12.0462H157.239V14.9262H156.079C155.039 14.9262 154.273 15.2196 153.779 15.8062C153.299 16.3929 153.059 17.1662 153.059 18.1262V24.1862H149.799Z" fill="#4F5159"/>
<defs>
<linearGradient id="paint0_linear_69_9" x1="6.5" y1="4" x2="23.5" y2="27" gradientUnits="userSpaceOnUse">
<stop stop-color="#24CCBE"/>
<stop offset="1" stop-color="#14AEA1"/>
</linearGradient>
<linearGradient id="paint1_linear_69_9" x1="6.5" y1="4" x2="23.5" y2="27" gradientUnits="userSpaceOnUse">
<stop stop-color="#24CCBE"/>
<stop offset="1" stop-color="#14AEA1"/>
</linearGradient>
<linearGradient id="paint2_linear_69_9" x1="6.5" y1="4" x2="23.5" y2="27" gradientUnits="userSpaceOnUse">
<stop stop-color="#24CCBE"/>
<stop offset="1" stop-color="#14AEA1"/>
</linearGradient>
</defs>
</svg>
