<svg width="48" height="48" viewBox="0 0 48 48" fill="none" xmlns="http://www.w3.org/2000/svg">
<path d="M0 12C0 5.37258 5.37258 0 12 0H36C42.6274 0 48 5.37258 48 12V36C48 42.6274 42.6274 48 36 48H12C5.37258 48 0 42.6274 0 36V12Z" fill="#DCE3FE"/>
<path d="M27 33C27 33 27 30.73 27 30C27 29.37 27.15 28.04 26.5 27.5C27.89 27.37 28.98 26.92 30 26C31.02 25.08 31.5 23.69 31.5 21.5C31.5 20 31.25 19 30.5 18C30.79 17.22 30.84 16 30.5 15C28.94 15 27.53 16.07 27 16.5C26.61 16.4 25.67 16 24 16C22.33 16 21.39 16.4 21 16.5C20.47 16.07 19.06 15 17.5 15C17.16 16 17.21 17.22 17.5 18C16.75 19 16.5 20 16.5 21.5C16.5 23.69 16.98 25.08 18 26C19.02 26.92 20.11 27.37 21.5 27.5C20.85 28.04 21 29.37 21 30C21 30.73 21 33 21 33" stroke="#071340" stroke-width="2" stroke-linecap="round" stroke-linejoin="round"/>
<path d="M21 31C19.59 31 18.16 30.44 17.31 29.81C16.47 29.18 16.22 28.15 15 27.5" stroke="#071340" stroke-width="2" stroke-linecap="round" stroke-linejoin="round"/>
</svg>
