<svg width="48" height="48" viewBox="0 0 48 48" fill="none" xmlns="http://www.w3.org/2000/svg">
<path d="M0 12C0 5.37258 5.37258 0 12 0H36C42.6274 0 48 5.37258 48 12V36C48 42.6274 42.6274 48 36 48H12C5.37258 48 0 42.6274 0 36V12Z" fill="#FDDEE7"/>
<mask id="mask0_93_498" style="mask-type:alpha" maskUnits="userSpaceOnUse" x="12" y="12" width="24" height="24">
<rect x="12" y="12" width="24" height="24" fill="#D9D9D9"/>
</mask>
<g mask="url(#mask0_93_498)">
<path d="M20.125 33.2125C18.9083 32.6875 17.8458 31.9708 16.9375 31.0625C16.0292 30.1542 15.3125 29.0917 14.7875 27.875C14.2625 26.6583 14 25.3625 14 23.9875C14 22.6125 14.2625 21.3208 14.7875 20.1125C15.3125 18.9042 16.0292 17.8458 16.9375 16.9375C17.8458 16.0292 18.9083 15.3125 20.125 14.7875C21.3417 14.2625 22.6375 14 24.0125 14C25.3875 14 26.6792 14.2625 27.8875 14.7875C29.0958 15.3125 30.1542 16.0292 31.0625 16.9375C31.9708 17.8458 32.6875 18.9042 33.2125 20.1125C33.7375 21.3208 34 22.6125 34 23.9875C34 25.3625 33.7375 26.6583 33.2125 27.875C32.6875 29.0917 31.9708 30.1542 31.0625 31.0625C30.1542 31.9708 29.0958 32.6875 27.8875 33.2125C26.6792 33.7375 25.3875 34 24.0125 34C22.6375 34 21.3417 33.7375 20.125 33.2125ZM24 31.95C24.4333 31.35 24.8083 30.725 25.125 30.075C25.4417 29.425 25.7 28.7333 25.9 28H22.1C22.3 28.7333 22.5583 29.425 22.875 30.075C23.1917 30.725 23.5667 31.35 24 31.95ZM21.4 31.55C21.1 31 20.8375 30.4292 20.6125 29.8375C20.3875 29.2458 20.2 28.6333 20.05 28H17.1C17.5833 28.8333 18.1875 29.5583 18.9125 30.175C19.6375 30.7917 20.4667 31.25 21.4 31.55ZM26.6 31.55C27.5333 31.25 28.3625 30.7917 29.0875 30.175C29.8125 29.5583 30.4167 28.8333 30.9 28H27.95C27.8 28.6333 27.6125 29.2458 27.3875 29.8375C27.1625 30.4292 26.9 31 26.6 31.55ZM16.25 26H19.65C19.6 25.6667 19.5625 25.3375 19.5375 25.0125C19.5125 24.6875 19.5 24.35 19.5 24C19.5 23.65 19.5125 23.3125 19.5375 22.9875C19.5625 22.6625 19.6 22.3333 19.65 22H16.25C16.1667 22.3333 16.1042 22.6625 16.0625 22.9875C16.0208 23.3125 16 23.65 16 24C16 24.35 16.0208 24.6875 16.0625 25.0125C16.1042 25.3375 16.1667 25.6667 16.25 26ZM21.65 26H26.35C26.4 25.6667 26.4375 25.3375 26.4625 25.0125C26.4875 24.6875 26.5 24.35 26.5 24C26.5 23.65 26.4875 23.3125 26.4625 22.9875C26.4375 22.6625 26.4 22.3333 26.35 22H21.65C21.6 22.3333 21.5625 22.6625 21.5375 22.9875C21.5125 23.3125 21.5 23.65 21.5 24C21.5 24.35 21.5125 24.6875 21.5375 25.0125C21.5625 25.3375 21.6 25.6667 21.65 26ZM28.35 26H31.75C31.8333 25.6667 31.8958 25.3375 31.9375 25.0125C31.9792 24.6875 32 24.35 32 24C32 23.65 31.9792 23.3125 31.9375 22.9875C31.8958 22.6625 31.8333 22.3333 31.75 22H28.35C28.4 22.3333 28.4375 22.6625 28.4625 22.9875C28.4875 23.3125 28.5 23.65 28.5 24C28.5 24.35 28.4875 24.6875 28.4625 25.0125C28.4375 25.3375 28.4 25.6667 28.35 26ZM27.95 20H30.9C30.4167 19.1667 29.8125 18.4417 29.0875 17.825C28.3625 17.2083 27.5333 16.75 26.6 16.45C26.9 17 27.1625 17.5708 27.3875 18.1625C27.6125 18.7542 27.8 19.3667 27.95 20ZM22.1 20H25.9C25.7 19.2667 25.4417 18.575 25.125 17.925C24.8083 17.275 24.4333 16.65 24 16.05C23.5667 16.65 23.1917 17.275 22.875 17.925C22.5583 18.575 22.3 19.2667 22.1 20ZM17.1 20H20.05C20.2 19.3667 20.3875 18.7542 20.6125 18.1625C20.8375 17.5708 21.1 17 21.4 16.45C20.4667 16.75 19.6375 17.2083 18.9125 17.825C18.1875 18.4417 17.5833 19.1667 17.1 20Z" fill="#430518"/>
</g>
</svg>
