<svg width="48" height="48" viewBox="0 0 48 48" fill="none" xmlns="http://www.w3.org/2000/svg">
<path d="M0 12C0 5.37258 5.37258 0 12 0H36C42.6274 0 48 5.37258 48 12V36C48 42.6274 42.6274 48 36 48H12C5.37258 48 0 42.6274 0 36V12Z" fill="#D4F7F4"/>
<path d="M21 30C20.45 30 19.9792 29.8042 19.5875 29.4125C19.1958 29.0208 19 28.55 19 28V16C19 15.45 19.1958 14.9792 19.5875 14.5875C19.9792 14.1958 20.45 14 21 14H30C30.55 14 31.0208 14.1958 31.4125 14.5875C31.8042 14.9792 32 15.45 32 16V28C32 28.55 31.8042 29.0208 31.4125 29.4125C31.0208 29.8042 30.55 30 30 30H21ZM21 28H30V16H21V28ZM17 34C16.45 34 15.9792 33.8042 15.5875 33.4125C15.1958 33.0208 15 32.55 15 32V18H17V32H28V34H17Z" fill="#07403B"/>
</svg>
