<svg width="48" height="48" viewBox="0 0 48 48" fill="none" xmlns="http://www.w3.org/2000/svg">
<path d="M0 12C0 5.37258 5.37258 0 12 0H36C42.6274 0 48 5.37258 48 12V36C48 42.6274 42.6274 48 36 48H12C5.37258 48 0 42.6274 0 36V12Z" fill="#FDDEE7"/>
<path d="M23.9 34L28.45 22H30.55L35.1 34H33L31.925 30.95H27.075L26 34H23.9ZM16 31L14.6 29.6L19.65 24.55C19.0667 23.9667 18.5375 23.3 18.0625 22.55C17.5875 21.8 17.15 20.95 16.75 20H18.85C19.1833 20.65 19.5167 21.2167 19.85 21.7C20.1833 22.1833 20.5833 22.6667 21.05 23.15C21.6 22.6 22.1708 21.8292 22.7625 20.8375C23.3542 19.8458 23.8 18.9 24.1 18H13V16H20V14H22V16H29V18H26.1C25.75 19.2 25.225 20.4333 24.525 21.7C23.825 22.9667 23.1333 23.9333 22.45 24.6L24.85 27.05L24.1 29.1L21.05 25.975L16 31ZM27.7 29.2H31.3L29.5 24.1L27.7 29.2Z" fill="#430518"/>
</svg>
