<svg width="48" height="48" viewBox="0 0 48 48" fill="none" xmlns="http://www.w3.org/2000/svg">
<path d="M0 12C0 5.37258 5.37258 0 12 0H36C42.6274 0 48 5.37258 48 12V36C48 42.6274 42.6274 48 36 48H12C5.37258 48 0 42.6274 0 36V12Z" fill="#D4F7F4"/>
<mask id="mask0_93_516" style="mask-type:alpha" maskUnits="userSpaceOnUse" x="12" y="12" width="24" height="24">
<rect x="12" y="12" width="24" height="24" fill="#D9D9D9"/>
</mask>
<g mask="url(#mask0_93_516)">
<path d="M24 34C22.6167 34 21.3167 33.7375 20.1 33.2125C18.8833 32.6875 17.825 31.975 16.925 31.075C16.025 30.175 15.3125 29.1167 14.7875 27.9C14.2625 26.6833 14 25.3833 14 24C14 22.6167 14.2625 21.3167 14.7875 20.1C15.3125 18.8833 16.025 17.825 16.925 16.925C17.825 16.025 18.8833 15.3125 20.1 14.7875C21.3167 14.2625 22.6167 14 24 14C25.3833 14 26.6833 14.2625 27.9 14.7875C29.1167 15.3125 30.175 16.025 31.075 16.925C31.975 17.825 32.6875 18.8833 33.2125 20.1C33.7375 21.3167 34 22.6167 34 24V25.45C34 26.4333 33.6625 27.2708 32.9875 27.9625C32.3125 28.6542 31.4833 29 30.5 29C29.9167 29 29.3667 28.875 28.85 28.625C28.3333 28.375 27.9 28.0167 27.55 27.55C27.0667 28.0333 26.5208 28.3958 25.9125 28.6375C25.3042 28.8792 24.6667 29 24 29C22.6167 29 21.4375 28.5125 20.4625 27.5375C19.4875 26.5625 19 25.3833 19 24C19 22.6167 19.4875 21.4375 20.4625 20.4625C21.4375 19.4875 22.6167 19 24 19C25.3833 19 26.5625 19.4875 27.5375 20.4625C28.5125 21.4375 29 22.6167 29 24V25.45C29 25.8833 29.1417 26.25 29.425 26.55C29.7083 26.85 30.0667 27 30.5 27C30.9333 27 31.2917 26.85 31.575 26.55C31.8583 26.25 32 25.8833 32 25.45V24C32 21.7667 31.225 19.875 29.675 18.325C28.125 16.775 26.2333 16 24 16C21.7667 16 19.875 16.775 18.325 18.325C16.775 19.875 16 21.7667 16 24C16 26.2333 16.775 28.125 18.325 29.675C19.875 31.225 21.7667 32 24 32H29V34H24ZM26.125 26.125C26.7083 25.5417 27 24.8333 27 24C27 23.1667 26.7083 22.4583 26.125 21.875C25.5417 21.2917 24.8333 21 24 21C23.1667 21 22.4583 21.2917 21.875 21.875C21.2917 22.4583 21 23.1667 21 24C21 24.8333 21.2917 25.5417 21.875 26.125C22.4583 26.7083 23.1667 27 24 27C24.8333 27 25.5417 26.7083 26.125 26.125Z" fill="#07403B"/>
</g>
</svg>
